<?xml version="1.0" standalone="no"?>
<!DOCTYPE svg PUBLIC "-//W3C//DTD SVG 20010904//EN"
 "http://www.w3.org/TR/2001/REC-SVG-20010904/DTD/svg10.dtd">
<svg version="1.0" xmlns="http://www.w3.org/2000/svg"
 width="2000.000000pt" height="2000.000000pt" viewBox="0 0 2000.000000 2000.000000"
 preserveAspectRatio="xMidYMid meet">

<g transform="translate(0.000000,2000.000000) scale(0.100000,-0.100000)"
fill="#000000" stroke="none">
<path d="M9050 19905 c-82 -17 -168 -51 -256 -102 -59 -34 -80 -41 -144 -46
-90 -6 -169 -34 -270 -96 -179 -109 -288 -283 -306 -491 -4 -50 -16 -104 -29
-135 -60 -136 -77 -341 -41 -475 54 -197 177 -330 340 -364 53 -11 66 -11 66
-1 0 16 -56 179 -100 290 -17 44 -33 85 -34 90 -5 16 -17 48 -34 85 -23 53
-28 202 -8 279 27 107 50 146 105 186 28 20 51 42 51 48 0 14 46 37 69 36 9 0
35 -26 57 -58 43 -60 144 -147 224 -194 38 -22 41 -27 25 -33 -43 -14 -141
-63 -160 -79 l-20 -16 20 5 c11 2 58 21 105 40 95 40 110 41 195 21 73 -18
134 -19 225 -4 l69 12 74 -47 c77 -48 92 -69 80 -116 -6 -23 -5 -23 21 7 42
50 105 81 143 71 41 -11 79 -60 93 -121 16 -72 -5 -217 -38 -265 -22 -32 -26
-48 -26 -112 0 -166 76 -289 209 -335 86 -30 146 -31 205 -4 25 12 66 27 93
35 26 8 47 21 47 28 0 14 -66 169 -105 247 -28 54 -99 162 -125 190 -8 9 -44
47 -81 85 -134 142 -274 331 -324 439 -10 22 -29 55 -43 73 -13 17 -21 32 -17
32 4 0 2 6 -4 13 -6 8 -9 16 -6 19 3 3 -4 13 -15 23 -11 10 -20 27 -20 37 0
10 -7 33 -17 51 -9 18 -17 41 -19 53 -1 11 -11 41 -23 67 -12 25 -21 50 -21
55 0 4 -16 16 -35 25 -20 9 -41 28 -47 42 -6 14 -20 25 -30 25 -66 0 -148 87
-148 157 0 69 23 101 150 212 l35 30 -45 0 c-25 -1 -74 -7 -110 -14z"/>
<path d="M8915 18791 c-84 -24 -140 -55 -169 -94 -35 -46 -33 -66 3 -31 38 39
101 76 117 70 22 -9 16 -26 -13 -37 l-28 -11 24 -19 c31 -25 47 -24 76 6 17
16 25 35 25 60 0 29 6 39 33 55 41 25 16 26 -68 1z"/>
<path d="M8295 18722 c-60 -7 -42 -17 31 -19 42 0 73 1 71 4 -10 9 -72 18
-102 15z"/>
<path d="M8338 18559 c-12 -6 -18 -22 -17 -42 0 -30 1 -31 11 -9 14 28 25 28
50 -3 33 -42 103 -30 96 16 -5 41 -94 65 -140 38z"/>
</g>
</svg>
